<svg xmlns="http://www.w3.org/2000/svg" xmlns:xlink="http://www.w3.org/1999/xlink" version="1.1" width="50" height="50.66666793823242" enable-background="new 0 0 800 600" xml:space="preserve" style=""><rect id="backgroundrect" width="100%" height="100%" x="0" y="0" fill="none" stroke="none" class="" style=""/>
<title>Промышленные и коммунальные зоны</title>



<g class="currentLayer" style=""><title>Промышленные и коммунальные зоны</title><g class="" id="svg_4"><polygon fill="#ffffff" points="16.01624870300293,27.902465343475342 14.581975936889648,48.36026906967163 23.652795791625977,48.36026906967163 22.218517303466797,27.902465343475342 " id="svg_1" class="" fill-opacity="1"/><polygon fill="#ffffff" points="27.170644760131836,33.66448354721069 26.278873443603516,48.540528774261475 31.86111068725586,48.540528774261475 30.969533920288086,33.66448354721069 " id="svg_2" class="" fill-opacity="1"/><path fill="#ffffff" d="M35.41772294408455,9.097685087707355 c-0.0032949554575960197,-3.853644228567803 -3.1301107742615732,-6.974936151457575 -6.983658092374741,-6.9715442855453436 c-1.764061005724122,0.001550567274162833 -3.4621259918416887,0.6711048983485994 -4.7523917848544315,1.874151282189683 c-0.31689718665702815,-0.07946657280084506 -0.6424194037765869,-0.1185214860188212 -0.9691045463517672,-0.1162925455622122 c-2.3816713331141033,0 -4.3125152312653645,1.9308438981512612 -4.3125152312653645,4.3125152312653645 l0,0 c-0.009981776827423215,0.17114386288572245 -0.009981776827423215,0.3425784571353501 0,0.5136254095664369 c-2.6043715578657394,0.8697713303507117 -4.010736075531424,3.685698410685042 -3.141158566089983,6.290069968550782 c0.3624451003355613,1.0857847337325202 1.0885951369169402,2.0132177845911614 2.055761474176004,2.6256918578854793 c-1.7054301806698402,1.6625957597210916 -1.7399303025199635,4.392950908612561 -0.07762527416277665,6.0985749101916715 c1.6625957597210916,1.7054301806698402 4.392950908612561,1.7399303025199635 6.098381089282401,0.07762527416277665 c0.39054913217976256,-0.381051907625515 0.7054111992894515,-0.8322669844068981 0.9277237822225466,-1.3304836316863413 c2.2066510520429743,1.6252852346865496 5.312534212645754,1.1540096937956845 6.937722536877666,-1.0520598955194786 c1.2816407625502126,-1.7397364816106928 1.2899750616488372,-4.108712545167588 0.020448105928022313,-5.857364788604717 C33.79117787348775,14.44491324311251 35.44359803547214,11.899366331210317 35.41772294408455,9.097685087707355 z" id="svg_3" class="" fill-opacity="1"/></g></g></svg>