<svg xmlns="http://www.w3.org/2000/svg" xmlns:xlink="http://www.w3.org/1999/xlink" version="1.1" width="50" height="50" enable-background="new 0 0 800 600" xml:space="preserve" style=""><rect id="backgroundrect" width="100%" height="100%" x="0" y="0" fill="none" stroke="none" class="" style=""/>

<g class="currentLayer" style=""><title>Загрязнение от автотранспорта</title><g id="svg_1" class="">
	<path fill="#FFFFFF" d="M15.048564632115875,23.988045580284084 l1.1786521018869378,-4.686729960902989 H6.389311110119359 L7.97608531572082,13.016317313460664 H19.808887248920225 l0.5893732763662548,2.343475940486556 h1.4054285821041463 l-0.7253824939892365,-2.822601371879593 c-0.18134562349730957,-0.6393517220210019 -0.6800460881149096,-1.1184771534140392 -1.269419364481164,-1.1184771534140392 H7.930748909846482 c-0.5893732763662548,0 -1.0880737409838548,0.4260865346339196 -1.269230462790021,1.1184771534140392 l-1.7227834232244366,6.9236842677310655 c-0.0906728117486549,0.10652163365848012 -0.2266820293716364,0.2663040841461995 -0.3173548411202918,0.4260865346339196 c-0.7707188998635639,1.1184771534140392 -1.133410146858182,2.5034803110443975 -1.133410146858182,3.941411405398814 v4.8999951482900705 c0,0.4260865346339196 0.3173548411202918,0.7986903323684785 0.6800460881149096,0.7986903323684785 h1.7681198290987639 v2.7697843951905963 c0,0.6391298019508794 0.4080276528689458,1.1182552333439166 0.9520645233608744,1.1182552333439166 h0.7255713956803796 c0.5440368704919272,0 0.9519700725153029,-0.4791254313930378 0.9519700725153029,-1.1182552333439166 V29.52717053052504 h4.941573789456102 v-0.4791254313930378 c0,-1.757606955364917 0.4987004646176008,-3.4086922770713532 1.3600921762298186,-4.7402126978023515 C14.912555414492893,24.1478280307718 15.003228226241536,24.094567213942565 15.048564632115875,23.988045580284084 zM7.205366415857242,26.118478253453688 c-0.8160553057378912,0 -1.4961013938528005,-0.7989122524385998 -1.4961013938528005,-1.757606955364917 s0.6800460881149096,-1.757606955364917 1.4961013938528005,-1.757606955364917 s1.4961013938528005,0.7989122524385998 1.4961013938528005,1.757606955364917 C8.701467809710046,25.37282681784433 8.021421721595141,26.118478253453688 7.205366415857242,26.118478253453688 z" id="svg_2"/>
	<path fill="#FFFFFF" d="M45.37862016204083,19.886962684432607 c-0.1360092176229819,-0.1595605304175981 -0.2266820293716364,-0.31956490097544016 -0.3173548411202918,-0.4260865346339196 L43.33848189769609,12.53696996199751 c-0.18134562349730957,-0.6393517220210019 -0.6800460881149096,-1.1184771534140392 -1.269230462790021,-1.1184771534140392 H30.145587788266845 c-0.5893732763662548,0 -1.0881681918294264,0.4260865346339196 -1.269419364481164,1.1184771534140392 l-0.7253824939892365,2.822601371879593 h1.4054285821041463 l0.5893732763662548,-2.343475940486556 H41.978389721466286 l1.586774205601455,6.28499830592043 H33.727163852338705 l1.1786521018869378,4.686729960902989 c0.0906728117486549,0.10652163365848012 0.1360092176229819,0.21304326731696022 0.2266820293716364,0.3197868210455617 c0.9067281174865468,1.2782596039017575 1.3600921762298186,2.9826057424374346 1.3600921762298186,4.7402126978023515 v0.4791254313930378 h4.94147933861053 v2.7697843951905963 c0,0.6391298019508794 0.4080276528689458,1.1182552333439166 0.9520645233608744,1.1182552333439166 H43.11179986832447 c0.5440368704919272,0 0.9518756216697309,-0.4791254313930378 0.9518756216697309,-1.1182552333439166 V29.52717053052504 h1.4962902955439434 c0.498511562926458,0 0.9520645233608744,-0.4791254313930378 0.9520645233608744,-1.1182552333439166 v-4.5804302473146326 C46.512030308899014,22.3902210754069 46.14915016021325,21.00543983784665 45.37862016204083,19.886962684432607 zM42.74891971963871,26.118478253453688 c-0.8160553057378912,0 -1.4961013938528005,-0.7989122524385998 -1.4961013938528005,-1.757606955364917 s0.6800460881149096,-1.757606955364917 1.4961013938528005,-1.757606955364917 c0.8162442074290351,0 1.4962902955439434,0.7989122524385998 1.4962902955439434,1.757606955364917 C44.24521001518265,25.37282681784433 43.56516392706773,26.118478253453688 42.74891971963871,26.118478253453688 z" id="svg_3"/>
	<path fill="#FFFFFF" d="M33.90850947583603,24.627175382234956 l-1.7227834232244366,-6.923906187801188 c-0.18134562349730957,-0.6391298019508794 -0.6800460881149096,-1.1184771534140392 -1.269230462790021,-1.1184771534140392 H19.037979447365526 c-0.5891843746751125,0 -1.0880737409838548,0.4260865346339196 -1.269230462790021,1.1184771534140392 l-1.7227834232244366,6.923906187801188 c-0.0906728117486549,0.10652163365848012 -0.2266820293716364,0.2660821640760783 -0.3173548411202918,0.4260865346339196 c-0.7705299981724205,1.1184771534140392 -1.133221245167039,2.5032583909742754 -1.133221245167039,3.941300445363753 v4.8999951482900705 c0,0.4260865346339196 0.31716593942914817,0.7989122524385998 0.6798571864237671,0.7989122524385998 H17.043366490586276 v2.7695624751204755 c0,0.6391298019508794 0.4078387511778032,1.1184771534140392 0.9518756216697309,1.1184771534140392 h0.7255713956803796 c0.5440368704919272,0 0.9520645233608744,-0.47934735146315943 0.9520645233608744,-1.1184771534140392 v-2.7695624751204755 h10.654055380466913 v2.7695624751204755 c0,0.6391298019508794 0.4080276528689458,1.1184771534140392 0.9520645233608744,1.1184771534140392 h0.7253824939892365 c0.5440368704919272,0 0.9520645233608744,-0.47934735146315943 0.9520645233608744,-1.1184771534140392 v-2.7695624751204755 h1.4961013938528005 c0.4987004646176008,0 0.9520645233608744,-0.47934735146315943 0.9520645233608744,-1.1184771534140392 V28.994562362232635 c0,-1.4380420543894774 -0.3626912469946184,-2.822601371879593 -1.133410146858182,-3.941300445363753 C34.13509705436208,24.89347946638116 34.04451869345901,24.733697015893437 33.90850947583603,24.627175382234956 zM19.037979447365526,18.23587736272619 H30.870970282256085 l1.586774205601455,6.231515569021068 H17.49673054932954 L19.037979447365526,18.23587736272619 zM18.31278585506744,31.33803830271919 c-0.8160553057378912,0 -1.4961013938528005,-0.7989122524385998 -1.4961013938528005,-1.757606955364917 s0.6800460881149096,-1.757606955364917 1.4961013938528005,-1.757606955364917 s1.4961013938528005,0.7989122524385998 1.4961013938528005,1.757606955364917 S19.128652259114183,31.33803830271919 18.31278585506744,31.33803830271919 zM31.641689182119663,31.33803830271919 c-0.8160553057378912,0 -1.4961013938528005,-0.7989122524385998 -1.4961013938528005,-1.757606955364917 s0.6800460881149096,-1.757606955364917 1.4961013938528005,-1.757606955364917 s1.4961013938528005,0.7989122524385998 1.4961013938528005,1.757606955364917 C33.09245417009813,30.5391260502806 32.45755558616639,31.33803830271919 31.641689182119663,31.33803830271919 z" id="svg_4"/>
</g></g></svg>